<svg width="50" height="50" viewBox="0 0 50 50" fill="none" xmlns="http://www.w3.org/2000/svg">
<path d="M40.9417 40.4274C42.0917 40.1878 42.7792 38.9837 42.2063 37.9545C40.9438 35.6899 38.9563 33.6982 36.4146 32.1816C33.1396 30.2274 29.125 29.167 25 29.167C20.8729 29.167 16.8604 30.2253 13.5854 32.1816C11.0438 33.6982 9.05626 35.6899 7.79376 37.9545C7.22084 38.9837 7.90834 40.1878 9.05834 40.4274C19.5725 42.6186 30.4255 42.6186 40.9396 40.4274" fill="#699BF7"/>
<path d="M25.0002 27.0833C30.7531 27.0833 35.4168 22.4196 35.4168 16.6667C35.4168 10.9137 30.7531 6.25 25.0002 6.25C19.2472 6.25 14.5835 10.9137 14.5835 16.6667C14.5835 22.4196 19.2472 27.0833 25.0002 27.0833Z" fill="#699BF7"/>
</svg>
